<svg width="222" height="92" viewBox="0 0 222 92" fill="none" xmlns="http://www.w3.org/2000/svg">
<path d="M212.93 44.61L212.94 44.6L216.74 42.0001L220.33 40.9301L220.89 40.2601L221.39 39.23L221.08 37.98L220.55 37.1L219.94 36.4301L219.24 35.8701L217.77 34.85L215.2 33.5701L211.33 32.0701L208.82 30.4901L206.82 28.98L204.8 26.47L198.48 9.17004L196.67 7.25006L195.19 6.12006L192.71 4.90009L178.69 1.74005L164.09 1.06006L163.95 1.09009L162.72 1.16003L160.91 1.52008L159.16 2.09009L156 3.82007L152.63 6.31006L151.38 7.66003L150.82 8.44006L149.43 11.17L141.65 20.0301L138.9 22.6201L136.53 24.0901L135.52 24.4301L134.1 24.5301L132.98 24.36L132.01 23.98L131.29 23.4601L129.42 21.6801L128.28 20.3801L125.91 16.7101L125.35 15.97L124.57 15.2101L119.64 13.0901L118.86 12.6301L117.41 11.5801L116.13 10.3901L115.09 8.98004L112.7 3.97003L112.03 3.20007L110.89 2.47003L108.57 2.25006H106.08L103.97 2.67004L102.66 3.06006L96.18 7.45007L94.05 8.49005L92.66 8.93005L92.04 9.00006L91.43 8.75006L90.21 7.31006L89.32 6.62006L88.17 6.00006L86.22 5.30005L85.17 5.51007L84.49 6.17004L81.55 16.7101L80.84 17.7801L79.48 18.8901L71.92 21.97L70.96 22.5901L70.27 23.4301L68.28 27.61L66.35 34.5801L64.63 38.1L64.17 38.8401L63.63 39.54L62.71 40.4501L61.42 41.47L58.9 42.98L57.25 43.4301L55.87 43.5301L53.98 42.8901L52.45 41.9601L51.77 41.3901L51.15 40.7601L50.21 40.0901L49.03 39.5601L46.96 39.2601L45.8 39.54L44.84 40.0301L41.43 44.1401L40.37 44.9501L38.85 45.8901L35.78 47.3801L34.03 47.97L32.57 48.3101L28.08 48.1401L26.27 47.8701L23.01 46.61L22.16 46.2101L19.39 45.2001L17.74 44.2801L17.12 43.6401L16.77 42.8301V39.72L15.64 39.0201L13.63 38.7801L5.88 39.3701L4.07001 39.7001L2.53 40.2101L2.09 40.4501L1.62 40.8L1.34 41.3701L1.14001 41.9301L0.369995 45.8901L0.350006 47.4401L0.429993 48.4301L0.570007 49.22L0.980011 50.5901L7.64999 63.7701L10.31 67.79L11.86 69.0201L13.64 69.85L14.61 70.1501L17.42 71.61L19.9 73.3701L21.04 74.55L21.85 75.5901L24.69 81.98L27.42 91.6H27.43L28.54 91.0501L36.67 90.0301L75.21 77.5301L78.06 77.2701L79.64 76.7101L80.69 75.8701L83.03 73.5201L83.87 73.0201L98.15 68.2001L101.05 65.2401L103.04 61.98L105.55 59.3201L112.54 57.3101L117.48 52.6901L120.23 50.8301L132.25 47.5701L135.66 45.1301L137.17 44.6L141.51 44.41L142.41 43.8901L143.32 42.8401L145.5 41.97L149.78 40.97L157.5 40.5601L212.93 44.61Z" fill="#CCCCCC" stroke="white" stroke-width="0.5"/>
</svg>
