<svg width="402" height="321" viewBox="0 0 402 321" fill="none" xmlns="http://www.w3.org/2000/svg">
<path d="M219.91 30.04L216.03 29.93L211.83 29.38L209.81 28.86L208.41 28.37L207.44 27.55L206.48 26.42L205.45 24.96L205.03 24.16L204.36 22.47L203.94 20.72L203.56 11.93L203.24 10.02L201.94 6.41998L201.11 4.81L200.25 3.84998L199.02 2.78998L196.45 1.21002L194.83 0.650024L193.54 0.450012L192.55 0.599976L191.64 0.869995L190.73 1.23999L189.18 2.12L188.51 2.69L187.27 4.01001L181.4 13.41L179.21 16.21L177.83 17.32L170.58 21.65L165.28 25.51L164.79 26.07L164.55 26.5L164.3 27.2L164.31 28.14L164.56 29.07L165.94 32.59L166.96 36.52L167.09 37.61L166.86 38.71L166.28 39.73L164.31 40.42L162.55 40.75L158.38 40.82L157.08 40.97L156.16 41.29L154.62 42.22L152.74 44.09L149.95 48.71L148.72 50.01L147.68 50.67L146.25 51.23L143.29 51.59L141.63 51.47L140.19 51.07L137.43 49.78L136.18 49.64L135.08 49.71L134.12 49.95L130.4 51.38L129.21 51.72L127.46 52.04L126.33 51.86L125.43 51.37L124.8 50.76L123.12 48.76L121 47.04L117.04 44.81L114.16 43.89L112.55 43.05L112.05 42.32L111.7 41.48L111.27 39.43L110.83 31.48L110.48 30.36L109.8 29.39L108.32 28.54L107.11 28.34L105.91 28.4L101.96 29.38L100.13 30.05L99.11 30.26L92.4 30.5L90.7 30.33L89.46 29.94L87.46 28.75L86.42 28.56L85.06 28.65L83.58 28.89L79.16 28.8L77.93 29.07L76.43 30.25L75.36 30.78L72.71 31.09L64.24 29.76L61.89 29.74L60.51 30.29L60.24 31.23L60.05 32.31L59.76 33.27L59.32 34.09L58.97 34.98L58.42 36.94L57.98 37.72L56.86 39L56.61 39.89L56.44 40.93V44.08L56.18 44.98L55.47 46.72L55.27 47.71L55.21 48.6L55.34 49.19L55.8 49.54L56.55 49.89L57.47 50.19L59.61 50.47L61.76 50.26H63.94L64.95 50.46L65.86 50.82L66.58 51.34L70.58 56.02L71.28 56.62L72.06 57.03L73 57.28L74.03 57.25L80.72 55.91L81.37 55.85L82.19 55.91L82.9 56.27L89.69 61.9L94.43 67.05L95.92 68.09L97.72 68.75L106.55 70.97L107.06 71.33L107.07 71.96L106.89 72.82L105.5 75.22L105.16 76.11L105.02 77.1L105.47 79.98L105.31 80.91L104.03 84.55L103.53 85.28L102.84 85.83L101.42 86.26L99.5 86.67L95.7 87.1L93.9 87.57L92.66 88.13L90.72 90.07L86.51 95.75L84.07 98.42L79.19 101.99L74.27 104.8L70.8 106.03L48.91 107.27L47.13 107.03L46.6 106.34L46.24 105.46L45.74 103.61L45.4 102.73L44.58 101.95L43.34 101.31L40.76 100.89L39.32 100.98L38.16 101.34L35.96 102.82L24.62 115.3L24.19 116.07L23.92 116.94L23.88 118.98L23.45 119.72L23.25 120.56L22.48 122.13L22.25 123L22.36 125.87L22.15 126.7L21.68 127.41L21.14 128.07L20.69 128.87L20.31 129.73L19.74 130.39L18.41 131.53L17.38 132.98L16.77 133.62L14.71 135.3L13.93 135.75L12.25 136.52L11.51 136.99L10.94 137.66L10.6 138.6L10.4 139.42L10.37 140.03L11.32 140.44L12.29 140.51L13.36 140.41L19.78 138.58L28.87 138.81L32.39 139.22L34.46 139.79L35.36 140.22L36.09 140.72L36.76 141.38L37.25 142.14L37.51 142.92L37.33 143.72L36.66 144.35L35.64 144.92L34.02 145.6L32.97 146.21L32.1 146.84L31.5 147.47L30.95 148.23L30.55 149.05L29.98 150.96L28.67 161.47L28.43 162.5L27.71 164.5L26.82 166.27L26.29 166.93L25.68 167.58L24.49 168.35L22.73 169.25L19.04 170.69L17.03 171.2L15.34 171.45L12.97 171.23L8.51001 170.19L7.11 170.06L6.60001 170.58L6.41 171.41L6.31 172.43L5.69 175.48L5.60001 176.53L5.77 177.51L6.3 178.15L7.97 178.81L8.64 179.36L9.01001 180.2L9.26001 183.4L9.57001 184.28L10.18 184.89L12.5 186.31L13.04 186.95L13.35 187.69L13.21 188.49L12.23 189.91L11.82 190.68L11.63 191.55L11.79 192.42L12.66 193.96L12.92 194.79L12.98 195.61L12.41 196.39L11.72 198.17L11.18 198.86L10.47 199.39L9.83 200L8.66 201.61L7.66 202.39L6.95 203.12L6.45 203.98L5.56 205.94L4.58 206.77L3.94 207.56L3.5 208.48L2.93001 210.38L1.54001 212.53L1.48001 213.26L2.16 214.57L2.14 215.33L1.15001 216.57L0.779999 217.36L0.75 218.27L1.14 218.97L1.85001 219.47L3.72 220.12L4.32001 220.72L4.59 221.65V222.49L4.28 224.24L3.73001 228.56L4.16 229.01L5.14 229.65L6.74001 229.84L8.02 229.85L9.15001 229.74L10.1 229.46L11.72 228.67L12.4 228.2L14.72 225.95L15.29 225.07L16.15 223.26L16.82 221.38L17.32 219.4L19.14 206.78L19.6 205.34L20.57 203.26L21.53 202.39L22.52 201.92L23.58 201.97L24.49 202.24L26.23 203.02L31.76 206.43L32.88 206.69H34.25L38.1 205.37L39.52 205.15L40.94 205.38L41.8 205.93L42.31 206.57L42.54 207.29L42.67 207.89L42.76 208.83V209.81L39.33 220.01L39.08 222.24L39.13 223.34L39.35 224.27L39.81 225.08L41.43 225.88L54.6 228.94L55.47 229.33L56.21 229.85L56.85 230.46L58.27 232.7L58.63 233.58L59.42 236.48L59.82 237.51L60.37 238.57L61.48 239.83L62.59 240.32L63.97 240.52L68.14 240.34L76.44 240.73L78.59 242.01L78.96 243.28L79.09 244.11L78.99 245.05L78.73 245.93L77.92 247.63L77.63 248.61L77.56 249.77L77.84 252.39L77.67 253.43L77.31 254.24L76.7 254.87L76.17 255.79L75.79 256.94L78.44 270.95L79.26 273.11L80.19 274.2L80.76 274.15L82.17 273.64L83.09 273.57L84.24 274.02L85.11 275.57L87.66 282.68L88.78 284.59L89.89 285.54L90.67 285.51L91.38 285.75L92.04 286.41L94.96 290.12L96.59 291.6L97.72 291.93L98.57 291.89L99.11 291.29L99.55 290.54L100.33 290.11L101.5 290.06L103.78 291.17L105.24 291.41L106.44 291.4L107.28 291.09L107.95 290.67L109.03 289.59L109.69 289.25L110.54 289.14L112.42 289.32L114.86 290.43L115.22 291.24L115.19 292.11L114.93 292.92L114.71 293.96L114.66 294.59L114.68 295.5L114.98 296.8L115.82 297.52L119.7 299.48L120.32 300.15L120.85 301.22L121.48 301.78L124 302.31L125.97 302.4L130.87 304.38L131.75 305.25L132.61 306.67L133.81 307.37L135.33 307.97L138.04 309.39L139.67 309.76L140.83 309.69L141.74 309.36L142.97 309.39L144.96 308.99L149.01 308.71L150.92 308.36L153.15 308.48L154.59 309.01L155.62 308.99L157.29 308.49L159.22 308.55L160.19 308.46L161.09 308.25L162.07 308.13L163.78 308.7L166.68 309.23L167.74 309.88L169.15 311.26L169.89 312.26L170.31 313.21L170.32 314.04L169.97 314.61L169.25 314.82L168.41 314.93L167.69 315.37L167.75 316.26L168.44 317.43L171.31 319.12L172.95 319.88L174.56 320.44L175.43 320.52L176.19 320.19L176.67 319.5L177.69 317.08L177.61 316.22L177.33 315.48L177.22 314.75L177.57 314.16L179.31 313.78L181.31 313.83L182.13 313.57L182.86 313.27L184.44 313.01L184.99 312.48L185.49 311.77L186.11 311.09L189.52 310.46L190.55 310.42L191.46 310.24L192.27 309.89L192.87 309.29L193.91 309.01L195.36 308.99L199.46 310.07L200.66 310.98L201.62 311.36L202.64 311.4L203.64 311.15L204.85 310.99L205.57 311.43L205.96 312.25L206.24 313.27L206.61 314.18L207.11 315.1L207.88 315.24L208.84 315.23L209.77 314.93L210.61 314.55L212.08 313.5L213.02 313.29L213.57 313.59L214.12 314.18L214.59 314.26L214.82 313.63L214.99 312.75L215.28 311.89L216.51 311.05L216.9 310.65L217.13 310.32L217.34 309.4L220.6 302.98L220.53 300.54L219.97 299.89L219.33 299.47L218.45 299.42L217.69 299.56L217.04 299.54L216.68 298.99L216.62 298.23L216.86 297.39L217.96 295.02L218.19 294.04V293.89L218.36 292.64L219.72 288.89L221.25 286.34L221.76 285.19L223.01 281.21L223.2 280.14L223.5 279.13L224.11 278.42L226.33 277.79L227 277.17L227.06 276.05L226.6 275.32L225.84 274.8L225.06 274.57L224.64 273.99L224.76 272.24L224.48 271.51L224.35 270.71L224.79 269.72L226.82 266.27L227.25 264.85L227.59 262.63V261.52L227.48 260.49L227.16 259.58L226.69 258.84L226.14 258.18L225.86 257.61L226.22 256.88L230.24 254.58L231.63 253.5L232.37 252.66L233.16 251.57L234.15 249.55L234.62 248.16L235.03 245.7L237.12 237.81L239.85 230.58L247.55 218.45L270.84 194.3L271.7 193.11L272.13 192.3L273.14 190.85L278.18 185.83L279.33 184.38L279.97 183.21L280.03 182.59L279.98 181.64L279.51 179.72L278.71 178.07L277.74 176.59L277.16 175.91L276.53 175.32L272.33 172.07L271.07 170.83L269.97 169.43L269.06 167.89L268.72 167.02L268.52 166.04L268.46 164.98L268.56 163.91L269.05 161.95L269.75 160.17L270.91 159.03L272.74 157.73L277.1 155.65L281.03 154.19L293.99 152.37L294.91 152.06L296.06 151.34L297.54 150.07L329.82 104.83L331.84 103.08L334.57 102.51L358.57 102.06L360.27 101.55L362.24 99.36L362.81 98.46L364.04 97.2L365.39 96.4L367.4 95.52L376.33 92.52L378.48 91.22L380.69 89.39L381.83 88.24L385.38 83.75L386.63 82.52L388.01 81.44L391.24 80.29L401.56 78.44L393.57 64.22L390.07 59.73L389.07 59.11L388.1 58.66L362.77 49.33L344.03 46.01L338.54 44.29L336.98 43.49L335.85 42.71L334.69 41.42L332.85 38.34L329.64 30.53L325.52 23.81L322.39 20.56L318.04 16.89L315.95 15.69L314.51 15.43L313.82 15.94L313 16.36L309.33 17.62L307.74 18.5L305.08 20.89L304.07 21.04L302.76 20.83L301.64 19.9L300.94 20.05L300.47 20.56L299.62 22.25L299.01 23L298.28 23.6L297.21 23.94L296.46 23.66L295.93 23.01L295.66 22.32L294.72 21.95L293.39 21.8L290.92 21.17L289.32 20.48L287.43 19.36L286.28 19.19L285.1 19.31L283.52 19.27L282.3 19.43L281.42 19.86L280.17 20.92L279.29 21.04L277.24 20.92L274.86 21.18L273.16 21.2L272.24 20.8L271.44 20.1L270.06 18.33L269.17 18.04L268.25 18.08L266.06 18.53L264.66 18.54L263.77 18.07L262.18 16.42L261.28 16.05L256.14 15.32L254.55 15.31L253.41 15.67L252.87 16.31L251.88 17.81L251.32 18.46L249.07 19.97L247.79 21.18L247.25 21.86L246.82 22.69L246.15 24.56L245.65 25.29L244.93 25.81L241.59 26.66L239.56 26.8L236.86 27.38L235.2 27.46L234.06 27.68L233.08 27.97L231.13 28.25L230.21 28.54L229.38 28.9L228.38 29.24L227.36 29.45L223.89 29.43L219.91 30.04Z" fill="#CCCCCC" stroke="white" stroke-width="0.5"/>
</svg>
