<svg width="601" height="437" viewBox="0 0 601 437" fill="none" xmlns="http://www.w3.org/2000/svg">
<path d="M103.99 12.35L96.76 4.45999L92.96 2.42001L91.57 2.14001L91.03 1.85001L90.51 1.07001L89.43 1.64001L90.28 4.48999L98.55 55.37L106.81 106.22L105.58 108.99L97.51 113.76L95.06 114.59L92.99 114.37L90.71 113.29L89.23 113.2L88.08 114.28L86.82 116.7L86.06 119.56L86.5 121.85L88.87 127.08L90.03 131.42L89.87 134.58L88.09 136.93L84.39 138.82L73.67 142.42L70.37 144.78L62.17 154.27L59.24 156.75L58.99 156.16L58.08 155.13L56.88 154.34L55.75 154.47L55.23 155.8L54.45 169.34L53.86 171.34L52.43 172.89L48.43 175.31L46.89 176.78L46.74 177.69L47.26 180.04L47.22 181.02L46.52 182.21L44.72 184.41L44.02 185.6L31.05 213.49L28.65 220.83L19.86 276.35L20.03 278.47L21.16 281L22.36 282.49L23.16 283.96L23.03 286.43L21.44 289.95L13.2 300.29L12.29 302.11L10.81 311.16L9.9 312.44L1 315.35L0.799999 315.48L0.68 315.56L0.85 316.17L2.71 325.65L3.93 329.33L5.82 332.73L6.45 333.53L7.26 334.37L8.63 335.45L9.7 336.06L10.83 336.5L13.07 336.72L14.08 336.68L15.01 336.45L21.81 333.66L23.75 333.26L25.72 333.71L28.42 334.82L33.87 337.84L36.52 340.18L38.53 342.47L42.8 350.39L43.69 354.21L46.47 360.39L46.77 361.55L46.85 364.76L47.02 365.75L47.29 366.7L47.65 367.55L48.21 369.45L48.25 370.46L48.06 371.41L46.6 374.86L46.34 375.84L46.21 376.94L46.4 378.48L46.85 380.31L48.06 383.2L48.5 384.95L48.68 386.46L48.59 387.73L49.15 388.64L49.87 389.2L50.75 389.66L55.61 390.97L57.29 391.78L64.31 397.17L65.13 397.59L67.11 398.1L69.43 398.12L76.22 397.56L77.73 397.75L79.4 398.17L81.76 399.32L82.9 400.26L83.6 401.25L84.37 404.88L85.11 406.79L86.06 408.08L86.91 408.91L87.78 409.46L88.66 409.82L92.25 410.87L94.34 411.8L95.43 412.59L96.18 413.43L104.15 430.41L104.99 431.19L106 431.61L107 431.8L111.94 432.05L113 432.25L113.91 432.54L115.91 433.66L118.26 435.37L119.88 436.19L121.28 436.24L121.59 434.49V433.65L121.32 432.72L120.72 432.12L118.85 431.47L118.14 430.97L117.75 430.27L117.78 429.36L118.15 428.57L119.14 427.33L119.16 426.57L118.48 425.26L118.54 424.53L119.93 422.38L120.5 420.48L120.94 419.56L121.58 418.77L122.56 417.94L123.45 415.98L123.95 415.12L124.66 414.39L125.66 413.61L126.83 412L127.47 411.39L128.18 410.86L128.72 410.17L129.41 408.39L129.98 407.61L129.92 406.79L129.66 405.96L128.79 404.42L128.63 403.55L128.82 402.68L129.23 401.91L130.21 400.49L130.35 399.69L130.04 398.95L129.5 398.31L127.18 396.89L126.57 396.28L126.26 395.4L126.01 392.2L125.64 391.36L124.97 390.81L123.3 390.15L122.77 389.51L122.6 388.53L122.69 387.48L123.31 384.43L123.41 383.41L123.6 382.58L124.11 382.06L125.51 382.19L129.97 383.23L132.34 383.45L134.03 383.2L136.04 382.69L139.73 381.25L141.49 380.35L142.68 379.58L143.29 378.93L143.82 378.27L144.71 376.5L145.43 374.5L145.67 373.47L146.98 362.96L147.55 361.05L147.95 360.23L148.5 359.47L149.1 358.84L149.97 358.21L151.02 357.6L152.64 356.92L153.66 356.35L154.33 355.72L154.51 354.92L154.25 354.14L153.76 353.38L153.09 352.72L152.36 352.22L151.46 351.79L149.39 351.22L145.87 350.81L136.78 350.58L130.36 352.41L129.29 352.51L128.32 352.44L127.37 352.03L127.4 351.42L127.6 350.6L127.94 349.66L128.51 348.99L129.25 348.52L130.93 347.75L131.71 347.3L133.77 345.62L134.38 344.98L135.41 343.53L136.74 342.39L137.31 341.73L137.69 340.87L138.14 340.07L138.68 339.41L139.15 338.7L139.36 337.87L139.25 335L139.48 334.13L140.25 332.56L140.45 331.72L140.88 330.98L140.92 328.94L141.19 328.07L141.62 327.3L152.96 314.82L155.16 313.34L156.32 312.98L157.76 312.89L160.34 313.31L161.58 313.95L162.4 314.73L162.74 315.61L163.24 317.46L163.6 318.34L164.13 319.03L165.91 319.27L187.8 318.03L191.27 316.8L196.19 313.99L201.07 310.42L203.51 307.75L207.72 302.07L209.66 300.13L210.9 299.57L212.7 299.1L216.5 298.67L218.42 298.26L219.84 297.83L220.53 297.28L221.03 296.55L222.31 292.91L222.47 291.98L222.02 289.1L222.16 288.11L222.5 287.22L223.89 284.82L224.07 283.96L224.06 283.33L223.55 282.97L214.72 280.75L212.92 280.09L211.43 279.05L206.69 273.9L199.9 268.27L199.19 267.91L198.37 267.85L197.72 267.91L191.03 269.25L190 269.28L189.06 269.03L188.28 268.62L187.58 268.02L183.58 263.34L182.86 262.82L181.95 262.46L180.94 262.26H178.76L176.61 262.47L174.47 262.19L173.55 261.89L172.8 261.54L172.34 261.19L172.21 260.6L172.27 259.71L172.47 258.72L173.18 256.98L173.44 256.08V252.93L173.61 251.89L173.86 251L174.98 249.72L175.42 248.94L175.97 246.98L176.32 246.09L176.76 245.27L177.05 244.31L177.24 243.23L177.51 242.29L178.89 241.74L181.24 241.76L189.71 243.09L192.36 242.78L193.43 242.25L194.93 241.07L196.16 240.8L200.58 240.89L202.06 240.65L203.42 240.56L204.46 240.75L206.46 241.94L207.7 242.33L209.4 242.5L216.11 242.26L217.13 242.05L218.96 241.38L222.91 240.4L224.11 240.34L225.32 240.54L226.8 241.39L227.48 242.36L227.83 243.48L228.27 251.43L228.7 253.48L229.05 254.32L229.55 255.05L231.16 255.89L234.04 256.81L238 259.04L240.12 260.76L241.8 262.76L242.43 263.37L243.33 263.86L244.46 264.04L246.21 263.72L247.4 263.38L251.12 261.95L252.08 261.71L253.18 261.64L254.43 261.78L257.19 263.07L258.63 263.47L260.29 263.59L263.25 263.23L264.68 262.67L265.72 262.01L266.95 260.71L269.74 256.09L271.62 254.22L273.16 253.29L274.08 252.97L275.38 252.82L279.55 252.75L281.31 252.42L283.28 251.73L283.86 250.71L284.09 249.61L283.96 248.52L282.94 244.59L281.56 241.07L281.31 240.14L281.3 239.2L281.55 238.5L281.79 238.07L282.28 237.51L287.58 233.65L294.83 229.32L296.21 228.21L298.4 225.41L304.27 216.01L305.51 214.69L306.18 214.12L307.73 213.24L308.64 212.87L309.55 212.6L310.54 212.45L311.83 212.65L313.45 213.21L316.02 214.79L317.25 215.85L318.11 216.81L318.94 218.42L320.24 222.02L320.56 223.93L320.94 232.72L321.36 234.47L322.03 236.16L322.45 236.96L323.48 238.42L324.44 239.55L325.41 240.37L326.81 240.86L328.83 241.38L333.03 241.93L336.91 242.04L340.89 241.43L344.36 241.45L345.38 241.24L346.38 240.9L347.21 240.54L348.13 240.25L350.08 239.97L351.06 239.68L352.2 239.46L353.86 239.38L356.56 238.8L358.59 238.66L361.93 237.81L362.65 237.29L363.15 236.56L363.82 234.69L364.25 233.86L364.79 233.18L366.07 231.97L368.32 230.46L368.88 229.81L369.87 228.31L370.41 227.67L371.55 227.31L373.14 227.32L378.28 228.05L379.18 228.42L380.77 230.07L381.66 230.54L383.06 230.53L385.25 230.08L386.17 230.04L387.06 230.33L388.44 232.1L389.24 232.8L390.16 233.2L391.86 233.18L394.24 232.92L396.29 233.04L397.17 232.92L398.42 231.86L399.3 231.43L400.52 231.27L402.1 231.31L403.28 231.19L404.43 231.36L406.32 232.48L407.92 233.17L410.39 233.8L411.72 233.95L412.66 234.32L412.93 235.01L413.46 235.66L414.21 235.94L415.28 235.6L416.01 235L416.62 234.25L417.47 232.56L417.94 232.05L418.64 231.9L419.76 232.83L421.07 233.04L422.08 232.89L424.74 230.5L426.33 229.62L430 228.36L430.82 227.94L431.51 227.43L432.95 227.69L435.04 228.89L439.39 232.56L442.52 235.81L446.64 242.53L449.85 250.34L451.69 253.42L452.85 254.71L453.98 255.49L455.54 256.29L461.03 258.01L479.77 261.33L505.1 270.66L506.07 271.11L507.07 271.73L510.57 276.22L518.56 290.44L563.96 292.21L565.96 292.71L567.77 293.41L571.71 295.45L573.83 296.3L575.33 296.58L576.58 296.55L577.58 296.32L580.2 295.24L583.44 293.29L586.2 292.11L587.48 292L588.68 292.07L597.12 295.06L596.29 289.38V288.33L596.51 286.21L599.54 276.62L600.27 271.11L600.3 268.72L599.49 263.33L598.82 262.2L597.79 260.97L595.53 259.04L594.11 258.16L592.89 257.54L587.98 256.16L581.35 252.82L580.56 252L579.84 250.85L579.06 248.68L578.73 247.17L578.17 236.4L577.92 235.39L575.8 230.15L563.96 209.75L559.66 197.84L559.41 195.54L558.74 193.69L557.74 192.33L555.62 190.99L554.29 190.52L550.26 189.91L548.34 189.45L546.56 188.7L544.91 187.42L543.47 185.9L539.07 178.87L538.63 177.91L538.05 176.08L537.28 169.56L536.79 167.62L529.06 149.43L526.96 146.09L524.83 143.53L499.81 123.36L496.27 121.64L486.03 118.92L484.12 119.56L480.89 119.75L473.55 118.62L470.23 117.46L460.25 111.62L441.65 96.51L441.12 95.8L440.52 95.14L439.97 94.43L439.36 93.8L437.29 90.97L434.34 87.84L432.96 86.75L432.12 86.35L431.13 86.04L429.97 85.84L425.92 86.11L421.91 86.88L420.1 86.99L417.82 86.85L414.36 86.28L412.12 86.15L411.1 86.25L410.3 86.39L409.73 86.6L409.19 86.91L408.59 87.36L407.42 88.64L405.17 91.63L403.98 92.91L402.68 94.08L401.91 94.53L401.08 94.92L398.47 95.75L396.75 96.54L395.12 97.49L393.61 98.71L393.08 99.29L392.57 99.99L392.12 100.75L389.27 108.32L388.4 109.93L387.25 111.3L384.6 113.75L383.16 114.76L382.31 115.13L376.57 116.52L374.93 117.18L374.13 117.66L373.46 118.25L372.92 119.06L372.5 119.86L372.16 120.8L371.95 121.83L371.81 122.97V124.14L372.16 126.13L372.91 127.74L374.82 130.81L375.51 132.42L375.76 133.34L375.95 134.31L376.01 138.69L375.85 139.84L375.57 140.9L375.02 141.77L374.24 142.42L373.37 142.84L372.64 143.31L372.08 143.74L371.75 144.14L370.21 147.17L369.13 148.61L368.22 150.16L367.63 150.62L366.75 150.44L365.4 149.47L364.19 148.79L362.34 148.28L361.05 147.54L360.04 145.89L340.91 92.16L339.02 88.91L336.57 85.7L331.65 82.46L329.81 80.74L328.87 79.45L329.11 78.52L329.51 77.67L329.99 76.91L331.12 75.46L332.37 74.22L333.08 73.69L334.37 72.49L334.91 71.87L335.47 71.12L335.88 70.31L336.19 69.33L336.35 68.25L336.47 62.29L336.66 61.23L336.94 60.28L337.8 58.6L338.86 57.19L348.06 48.86L349.12 47.58L350.99 44.07L351.64 42.23L351.8 41.21V40.22L351.71 39.35L351 36.44L348.37 30.37L347.5 26.36L346.53 23.6L345.58 22.91L344.06 22.47H340.25L337.51 22.23L333.67 21.45L330.57 20.45L329.05 19.65L320.1 13.61L317.46 11.4L315.83 9.62L315.14 9.06L313.89 7.82001L313.18 7.26999L311.52 6.47L309.47 5.92999L307.25 5.79999L297.6 6.17001L293.21 6.79001L290.29 8.69L289.64 9.29999L289.06 9.98999L288.59 10.78L288.2 11.66L287.93 12.6L286.9 17.93L286.49 18.8L285.91 19.46L285.19 20.01L283.63 20.9L280.19 22.4L278.14 22.86L273.74 23.31L271.92 23.23L261.27 21.13L259.86 21.14L257.63 21.78L256.38 22.36L255.44 23.06L254.94 23.78L254.52 24.62L253.93 26.49L253.48 27.36L252.93 28.04L251.66 29.12L249.36 29.71L244.09 32.07L230.71 27.78L223.39 30.96L221.05 34.04L219.53 37.58L218.73 41.38L218.49 45.27L218.99 56.18L218.49 59.59L217.72 61.7L216.75 63.47L214.25 66.46L213.35 68.18L213.69 69.78L214.48 71.26L214.92 72.66L215.27 75.99L216.26 79.09L217.77 81.62L219.71 83.25L226.53 84.4L233.41 83.83L239 85.14L242 91.92L242.12 95.19L241.5 98.4L239.7 100.86L236.32 101.84L232.45 100.98L225.29 97.44L220.94 96.99L217.21 98.8L214.26 102.18L212.04 105.44L210.51 106.9L207.56 111.86L206.41 113.02L205.66 113.52L188.54 117.04L180.73 117.18L174.23 115.58L171.12 112.6L166.48 104.78L160.98 101.9L155.92 95.57L153.38 93.17L150.64 91.63L148.26 89.88L146.56 87.46L145.14 76.07L143.46 69.62L141.29 65.63L141.01 63.98L140.24 62.46L136.87 61.36L136.1 60.2L134.98 57.5L132.8 54.8L131.35 51.84L132.42 48.43L129.18 42.1L128.75 40.25L127.77 38.71L123.48 36.08L122.5 34.11L120.97 29.97L114.23 24.74L109.01 14.83L106.56 12.35L105.82 12.06L104.88 12L104.14 12.12L103.99 12.35Z" fill="#CCCCCC" stroke="white" stroke-width="0.5"/>
</svg>
