<svg width="327" height="232" viewBox="0 0 327 232" fill="none" xmlns="http://www.w3.org/2000/svg">
<path d="M31.19 34.2001L30.26 33.11L29.44 30.9501L26.79 16.9401L27.17 15.79L27.7 14.8701L28.31 14.2401L28.67 13.4301L28.84 12.3901L28.56 9.77008L28.63 8.61005L28.92 7.63007L29.73 5.93005L29.99 5.05005L30.09 4.11005L29.96 3.28009L29.59 2.01007L27.44 0.730042L19.14 0.340088L18.23 3.03009L16.95 4.82007L14.02 7.53009L11.81 9.10004L6.92 11.0701L3.87001 12.72L2.47 13.85L1.61 14.92L1.34 15.8701L1.01001 18.0301L0.900009 20.3L1.13 22.6301L1.41 23.79L1.91 25.22L3.27 27.48L3.96001 28.2001L9.24001 31.7401L12.17 33.1201L13.61 33.61L14.58 33.8201L18.26 35.0701L19.76 36.0601L21.56 37.9901L22.15 39.0901L24.09 43.9301L24.75 44.7501L25.38 45.2401L26.15 45.66L31.8 48.0301L34.53 49.4601L35.22 50.0201L35.95 50.5101L39.34 54.04L47.48 65.8301L47.98 66.4001L48.58 66.9901L51.81 69.5001L52.63 69.9601L53.55 70.3701L57.75 71.3901L58.66 71.7501L59.8 72.7401L61.15 74.2601L63.59 77.6401L64.51 79.5101L64.91 81.1201L64.8 82.1901L64.07 85.4401L63.84 88.2001L64 90.1401L64.43 91.2601L65.14 92.0101L67.44 93.05L68.76 94.0801L69.15 95.16L69.08 96.1L68.58 96.7701L67.34 98.0301L66.78 98.73L66.33 99.5001L66.02 100.45L65.9 101.52L66.04 105.13L65.81 107.11L64.83 110.98L63.69 113.88L63.52 115.51L63.58 117.41L64.2 121.04L64.93 122.62L65.8 123.56L66.8 123.63L67.76 123.5L73.74 121.12L75.58 120.62L77.65 120.39L78.74 120.44L79.85 120.6L80.78 120.98L81.6 121.43L83.67 123.11L84.52 123.55L85.45 123.88L86.5 124.08L90.82 124.16L93.02 124.53L94.94 125.15L96.65 125.9L99.88 127.73L102.28 129.82L104.56 132.27L106.27 134.89L106.47 135.75L106.56 136.56L106.34 137.3L105.44 138.76L104.91 139.42L104.14 139.87L103.31 140.12L102.52 140.53L101.95 141.18L101.53 142L100.97 143.92L100.6 146.01L100.52 147.09L100.6 148.14L101.14 150.26L102.3 153.42L105.18 156.9L105.82 157.54L107.29 158.63L109.1 159.34L110.22 159.92L111.33 160.67L112.84 162.13L113.62 163.16L114.26 164.49L115.51 168.48L116.08 169.83L116.7 170.87L119 173.55L124.87 178.87L132.13 183.51L133.31 184.63L135.16 186.76L135.71 188.13L135.63 189.12L135.06 189.74L129.69 193.92L127.48 196.66L126.84 197.27L126.11 197.77L125.36 198.21L124.57 198.51L123.62 198.72L122.63 198.82L120.15 198.78L119.23 198.92L117.44 199.44L116.64 199.76L115.86 200.18L115.12 200.7L114.44 201.25L113.32 202.6L109.8 209.15L109.02 210.99L108.43 213.01L107.72 217.41L107.65 219.33L109.19 231.03L109.2 231.07V231.06L112.24 228.88L116.29 227.35L128.79 225.57L135.3 222.38L138.63 221.3L140.45 221.21L144.16 221.44L145.98 221.3L147.93 220.51L152.09 218.03L154.02 217.49L165.71 217.14L169.39 216.38L176.5 213.16L180.17 211L181.77 209.44L183.67 206.79L202.41 198.71L205.28 197.94L208.24 197.68L210.45 195.85L211.88 195.45L212.53 197.08L213.44 198.69L215.57 198.78L219.89 197.68L224.33 197.37L226.03 196.78L227.25 195.23L229.88 197.57L234 197.75L247.36 195.8L250.06 194.1L254.33 189.06L264.82 180.44L267.12 179.58L276.41 173.06L277.9 175.62L280.88 174.66L283.79 172.45L285.11 171.15L287.26 171.13L299.82 168.02L306.26 164.06L308.68 161.55L309.62 158.77L311.02 156.74L324.22 145.67L326.42 144.6L323.69 134.98L320.85 128.59L320.04 127.55L318.9 126.37L316.42 124.61L313.61 123.15L312.64 122.85L310.86 122.02L309.31 120.79L306.65 116.77L299.98 103.59L291.91 100.44L287.1 99.67L256.77 102.11L252.93 102.08L250.86 101.56L249.94 101.18L232.48 97.3701L228.97 97.0201L226.94 97.2801L224.74 97.7701L220.29 98.3101L218.67 98.17L217.5 97.7801L215.74 96.4901L214.35 95.73L211.67 94.8401L210.01 94.4901L208.72 94.35L193.22 94.5701L191.59 94.42L190.45 94.1201L190.01 93.79L189.06 92.7501L186.44 88.2401L180.84 76.0701L180.35 75.2501L179.5 74.5001L174.23 72.5301L168.34 69.4001L168.13 70.3201L167.9 70.6501L167.51 71.05L166.28 71.8901L165.99 72.7501L165.82 73.6301L165.59 74.2601L165.12 74.1801L164.57 73.5901L164.02 73.29L163.08 73.5001L161.61 74.55L160.77 74.9301L159.84 75.23L158.88 75.2401L158.11 75.1L157.61 74.1801L157.24 73.2701L156.96 72.2501L156.57 71.4301L155.85 70.9901L154.64 71.1501L153.64 71.4001L152.62 71.36L151.66 70.98L150.46 70.0701L146.36 68.9901L144.91 69.0101L143.87 69.29L143.27 69.8901L142.46 70.2401L141.55 70.42L140.52 70.4601L137.11 71.0901L136.49 71.7701L135.99 72.48L135.44 73.0101L133.86 73.2701L133.13 73.5701L132.31 73.8301L130.31 73.7801L128.57 74.16L128.22 74.7501L128.33 75.48L128.61 76.22L128.69 77.0801L127.67 79.5001L127.19 80.1901L126.43 80.5201L125.56 80.4401L123.95 79.8801L122.31 79.1201L119.44 77.4301L118.75 76.2601L118.69 75.3701L119.41 74.9301L120.25 74.8201L120.97 74.61L121.32 74.04L121.31 73.2101L120.89 72.2601L120.15 71.2601L118.74 69.8801L117.68 69.23L114.78 68.7001L113.07 68.1301L112.09 68.2501L111.19 68.4601L110.22 68.55L108.29 68.4901L106.62 68.9901L105.59 69.0101L104.15 68.48L101.92 68.36L100.01 68.7101L95.96 68.9901L93.97 69.3901L92.74 69.36L91.83 69.6901L90.67 69.7601L89.04 69.3901L86.33 67.97L84.81 67.3701L83.61 66.67L82.75 65.2501L81.87 64.3801L76.97 62.4001L75 62.3101L72.48 61.7801L71.85 61.22L71.32 60.1501L70.7 59.48L66.82 57.5201L65.98 56.8L65.68 55.5001L65.66 54.5901L65.71 53.9601L65.93 52.92L66.19 52.11L66.22 51.2401L65.86 50.4301L63.42 49.3201L61.54 49.1401L60.69 49.2501L60.03 49.5901L58.95 50.67L58.28 51.0901L57.44 51.4001L56.24 51.41L54.78 51.17L52.5 50.0601L51.33 50.11L50.55 50.54L50.11 51.29L49.57 51.8901L48.72 51.9301L47.59 51.6L45.96 50.1201L43.04 46.41L42.38 45.7501L41.67 45.5101L40.89 45.54L39.78 44.5901L38.66 42.6801L36.11 35.5701L35.24 34.0201L34.09 33.5701L33.17 33.6401L31.76 34.1501L31.19 34.2001Z" fill="#CCCCCC" stroke="white" stroke-width="0.5"/>
</svg>
