<svg width="283" height="266" viewBox="0 0 283 266" fill="none" xmlns="http://www.w3.org/2000/svg">
<path d="M242.33 6.57996L240.83 6.29993L238.71 5.44995L234.77 3.40991L232.96 2.70996L230.96 2.20996L185.56 0.439941L175.24 2.28992L172.01 3.43994L170.63 4.51996L169.38 5.74994L165.83 10.2399L164.69 11.39L162.48 13.2199L160.33 14.52L151.4 17.52L149.39 18.4L148.04 19.2L146.81 20.46L146.24 21.3599L144.27 23.5499L142.57 24.0599L118.57 24.5099L115.84 25.08L113.82 26.83L81.54 72.0699L80.06 73.34L78.91 74.0599L77.99 74.3699L65.03 76.1899L61.1 77.65L56.74 79.7299L54.91 81.03L53.75 82.1699L53.05 83.95L52.56 85.9099L52.46 86.9799L52.52 88.0399L52.72 89.02L53.06 89.89L53.97 91.4299L55.07 92.83L56.33 94.0699L60.53 97.3199L61.16 97.9099L61.74 98.59L62.71 100.07L63.51 101.72L63.98 103.64L64.03 104.59L63.97 105.21L63.33 106.38L62.18 107.83L57.14 112.85L56.13 114.3L55.7 115.11L54.84 116.3L31.55 140.45L23.85 152.58L21.12 159.81L19.03 167.7L18.62 170.16L18.15 171.55L17.16 173.57L16.37 174.66L15.63 175.5L14.24 176.58L10.22 178.88L9.86002 179.61L10.14 180.18L10.69 180.84L11.16 181.58L11.48 182.49L11.59 183.52V184.63L11.25 186.85L10.82 188.27L8.79001 191.72L8.35001 192.71L8.48001 193.51L8.76001 194.24L8.64001 195.99L9.06 196.57L9.84 196.8L10.6 197.32L11.06 198.05L11 199.17L10.33 199.79L8.11002 200.42L7.5 201.13L7.20001 202.14L7.01001 203.21L5.76001 207.19L5.25 208.34L3.72 210.89L2.36002 214.64L2.19 215.89V216.04L1.95999 217.02L0.860016 219.39L0.619995 220.23L0.679993 220.99L1.04001 221.54L1.69 221.56L2.45001 221.42L3.33002 221.47L3.97 221.89L4.53 222.54L4.60001 224.98L1.34 231.4L7.23001 234.53L12.5 236.5L13.35 237.25L13.84 238.07L19.44 250.24L22.06 254.75L23.01 255.79L23.45 256.12L24.59 256.42L26.22 256.57L41.72 256.35L43.01 256.49L44.67 256.84L47.35 257.73L48.74 258.49L50.5 259.78L51.67 260.17L53.29 260.31L57.74 259.77L59.94 259.28L61.97 259.02L65.48 259.37L82.94 263.18L83.86 263.56L85.93 264.08L89.77 264.11L120.1 261.67L124.91 262.44L132.98 265.59L132.57 264.22L132.43 263.43L132.35 262.44L132.37 260.89L133.14 256.93L133.34 256.37L133.62 255.8L134.09 255.45L134.53 255.21L136.07 254.7L137.88 254.37L145.63 253.78L147.64 254.02L148.77 254.72V257.83L149.12 258.64L149.74 259.28L151.39 260.2L154.16 261.21L155.01 261.61L158.27 262.87L160.08 263.14L164.57 263.31L166.03 262.97L167.78 262.38L170.85 260.89L172.37 259.95L173.43 259.14L176.84 255.03L177.8 254.54L178.96 254.26L181.03 254.56L182.21 255.09L183.15 255.76L183.77 256.39L184.45 256.96L185.98 257.89L187.87 258.53L189.25 258.43L190.9 257.98L193.42 256.47L194.71 255.45L195.63 254.54L196.17 253.84L196.63 253.1L198.35 249.58L200.28 242.61L202.27 238.43L202.96 237.59L203.92 236.97L211.48 233.89L212.84 232.78L213.55 231.71L216.49 221.17L217.17 220.51L218.22 220.3L220.17 221L221.32 221.62L222.21 222.31L223.43 223.75L224.04 224L224.66 223.93L226.05 223.49L228.18 222.45L234.66 218.06L235.97 217.67L238.08 217.25H240.57L242.89 217.47L244.03 218.2L244.7 218.97L247.09 223.98L248.13 225.39L249.41 226.58L250.86 227.63L251.64 228.09L256.57 230.21L257.35 230.97L257.91 231.71L260.28 235.38L261.42 236.68L263.29 238.46L264.01 238.98L264.98 239.36L266.1 239.53L267.52 239.43L268.53 239.09L270.9 237.62L273.65 235.03L281.43 226.17L281.9 209.63L281.63 208.17L280.9 206.89L274.66 203.21L270.85 200.04L268.56 198.69L265.43 198.26L253.11 198.57L249.91 197.59L241.44 191.15L240.32 189.28L240.13 186.24L240.75 183.02L242.05 180.64L242.93 178.36L242.55 175.18L241.33 171.72L240.36 169.81L241.16 168.79L249.22 165.69L252.25 163.91L255.12 161.78L255.7 161.17L256.26 160.5L257.23 158.99L257.65 158.16L262.84 142.36L262.98 140.87L262.9 139.23L262.17 136.69L261.39 135.49L260.58 134.63L258.3 133.19L257.04 131.95L256.09 130.41L255.79 129.57L255.51 128.6L254.78 124.41L254.28 122.5L253.84 121.7L253.23 121.08L252.42 120.61L251.53 120.31L250.61 120.14L245.31 120.52L244.39 120.26L243.86 119.6L243.94 117.33L244.5 113.95L247.34 103.31L248.19 101.23L248.71 100.53L249.3 99.89L249.83 99.1699L250.44 98.5399L250.97 97.8599L253.39 95.3599L254.12 94.7999L261.2 90.6699L261.81 90.0999L262.37 89.39L262.67 87.95L262.78 85.9L261.75 78.14L261.03 76.45L260.06 74.9L258.89 73.6099L257.49 72.52L255.76 71.7L253.03 70.7399L252.25 70.28L251.58 69.71L251.03 69.03L250.22 67.4199L249.63 65.4799L249.74 63.7L250.25 61.3599L251.92 56.64L252.89 54.52L253.75 53.0599L256.93 50.0699L257.62 49.5399L260.14 47.08L261.67 44.9199L262.12 43.9799L262.45 42.09L262.62 39.2299L262.2 34.0999L261.45 29.9099L261.14 28.9999V27.4699L261.48 25.4299L262.62 21.83L263.98 18.7199L264.46 17.96L264.9 14.7499L264.12 5.05994L255.68 2.06995L254.48 1.99994L253.2 2.10992L250.44 3.28992L247.2 5.23993L244.58 6.31995L243.58 6.54993L242.33 6.57996Z" fill="#CCCCCC" stroke="white" stroke-width="0.5"/>
</svg>
