<svg width="596" height="499" viewBox="0 0 596 499" fill="none" xmlns="http://www.w3.org/2000/svg">
<path d="M531.26 56.55L530.74 55.91L521.59 38.76L518.74 35.72L509.24 29.71L507.76 27.92L505.66 23.86L504.24 22.15L502.61 21.14L496.99 19.27L495.37 18.16L494.25 17.06L492.97 16.2L488.82 15.67L486.68 15.11L484.71 14.16L483.13 12.84L481.29 9.06001L481.41 5.25001L482.51 0.630005L482.43 0.650009L478.97 1.50001L467.6 7.38L458.91 8.09L440.56 12.01L438.22 12.79L436.86 13.69L435.37 13.88L427.08 17.59L422.69 18.78L421.48 18.82L418.23 18.54L417.21 18.31L416.41 17.88L415.1 16.55L414.34 15.93L413.13 15.56L412.24 15.77L411.51 16.3L410.97 17.03L410.54 17.86L410.18 18.78L409.09 24.38L408.71 25.29L408.08 26.22L406.86 27.43L405.79 27.91L404.74 28.01L403.96 27.63L403.1 27.06L401.97 26.67L399.99 26.65L398.8 26.98L397.69 27.59L395.43 29.4L394.33 29.82L393.29 29.91L390.61 28.97L384.75 29.02L383.58 29.43L382.73 30.02L381.58 31.76L380.71 32.67L379.08 33.78L378.02 33.84L377.14 33.42L376.44 32.86L375.47 32.62L373.91 33.84L373.14 33.95L372.49 33.57L372.15 32.76L372.23 31.84L372.59 31.01L374.45 29.1L375 28.38L375.37 27.49L375.66 26.5L375.83 25.46L375.86 24.34L375.67 23.3L375.37 22.36L374.87 21.6L374.19 21.02L373.45 20.51L372.78 19.91L372.35 19.16L372.19 18.24L372.35 17.42L372.74 16.74L373.33 16.14L373.71 15.36L373.8 14.4L373.54 13.51L373.08 12.7L372.01 12.09L370.47 11.63L359.69 11.38L357.87 11.68L356.73 12.28L356.4 13.24L355.99 16.64L355.6 17.55L354.77 18.36L353.65 19.08L351.68 19.87L350.49 20.5L349.7 21.23L349.45 22.2L349.27 24.2L348.99 24.99L348.6 25.56L347.78 26.5L347.29 27.22L346.64 29.09L346.24 29.97L345.74 30.73L338.64 37.19L338.62 37.21L337.76 37.93L337.22 38.56L335.26 40.06L333.37 41.02L332.19 41.19L331.48 40.82L331.47 40.06L331.89 39.38L334.03 37.24L334.07 37.19L334.11 37.16L335 36.17L335.39 35.48L335.15 34.81L334.05 34.35L331.33 34.43L329.72 34.26L328.58 33.86L327.83 33.34L327 32.9L325.96 32.67L323.66 32.41L321.25 31.73L319.31 31.48L317.97 31.57L315.89 32.07L297.06 39.09L295.55 40.06L294.9 40.65L294.28 41.32L293.77 42.05L292.97 43.8L292.2 46.84L291.36 47.98L289.99 49.15L283.78 52.2L282.5 53.43L281.51 54.93L281.14 55.81L280.91 56.77L280.86 57.78L280.92 58.85L282.23 64.99L282.44 67.23L282.41 68.41L282.25 69.51L281.98 70.52L281.2 71.61L280.04 72.62L277.62 74L276.5 73.95L275.69 73.45L275.35 72.54L274.93 71.73L274.09 71.24L272.89 71.11L270.02 71.22L268.92 71.05L268.02 70.7L264.82 68.92L264.09 68.37L263.28 67.94L262.32 67.67L261.29 67.54L260.34 67.27L259.66 66.7L259.22 65.9L258.54 64.1L257.94 63.44L257.23 62.9L256.4 62.45L255.64 61.95L255.03 61.32L254.55 60.54L253.96 58.83L253.66 57.2L247.88 55.34L241.39 51.94L237.53 50.4L235.13 50.15L233.9 50.17L232.67 50.32L231.33 50.7L230.49 51.18L229.85 51.72L227.44 54.85L223.87 61.63L222.76 63.1L220.23 65.62L213.03 70.97L210.8 73.25L209.07 75.67L208.07 77.61L207.72 78.59L207.26 80.74L206.8 87.82L206.61 88.91L206.21 90.16L203.3 95.47L202.78 96.71L202.73 97.9L203.86 99.23L217.55 111.45L218.91 112.92L219.65 114.24L219.19 115.3L218.47 115.94L216.57 116.64L214.28 117.83L213.5 118.06L212.64 118.11L211.58 118.09L210.49 117.94L208.73 117.27L207.84 117.1L206.96 117.27L206.08 117.53L203.83 117.92L202.71 118.34L202.51 118.9L202.98 119.35L206 120.1L206.86 120.61L207.39 121.34L207.21 122.77L206.58 123.53L205.62 123.93L204.54 123.96L203.52 123.75L202.45 123.67L201.45 123.72L199.05 125.11L197.9 125.42L196.44 126.12L195.62 126.83L195.07 127.61L194.69 128.44V128.46L193.96 130.4L193.83 131.46L194.08 134.56L194.01 135.49L194.07 136.43L194.34 137.27L195.83 139.51L196.12 140.46L196.3 141.53L196.24 142.78L195.98 144.29L195.3 146.29L194.94 148.29L194.35 149.47L193.7 150.22L192.84 150.64L188.65 151.9L187.02 153.09L185.86 154.56L184.37 157.15L183.31 158.18L182.21 158.79L177.85 158.91L167.83 157.63H167.14L164.26 158.18L161.99 158.38L150.34 157.63L126.96 162.85L120.16 163.09L115.8 162.49L113.69 162.01L108.95 161.65L106.53 161.7L104.4 162.01L98.61 163.72L97.51 163.84L81.56 162.65L80.54 162.76L63.9 167.94L61.75 168.26L52.81 168.39L50.12 168.88L47.36 169.67L45.91 170.33L44.83 170.98L44.16 171.59L43.17 173.04L42.74 173.89L41.62 177.27L40.71 178.77L39.77 179.5L38.53 180L35.27 180.76L34.11 181.33L33.25 181.96L32.7 182.7L31.67 184.46L30.82 185.65L29.33 187.36L27.84 188.37L26.56 188.87L6.24001 191.67L6.82001 192.13L4.52 194.12L2.98 196.79L2.09 199.77L1.81001 202.7L2.13 205.66L3.06001 207.54L9.49001 213.43L15.97 221.65L18.4 224.75L18.59 227.34L17.86 233.16L18.09 234.57L18.98 237.62V242.54L18.07 245.63L15.93 246.99L13.48 248.14L11.63 250.56L11.34 254L12.75 256.8L15.29 258.68L18.43 259.38L21.25 260.94L21.01 264.4L18.86 267.86L13.17 270.86L11.07 274.16L7.94 280.6L4.12 284.55L3.36 286.06L3.02 295.16L2.28001 298.02L0.590004 300.59L2.34 301.59L3.49001 302.79L4.91 303.78L7.39001 304.2L12 304.42L16.53 305.45L21.07 307.87L22.23 310.8L22.42 314.51L25.22 323.04L26.29 323.86L27.5 324.04L28.5 324.47L28.91 326.04L29.13 329.16L32.79 341.84L32.59 344.33L30.69 345.39L29.36 346.59L28.9 348.91L29.77 350.34L29.81 350.4L31.43 349.64L32.51 349.07L33.03 349.85L33.57 350.14L34.96 350.42L38.76 352.46L45.99 360.35L46.14 360.12L46.88 360L47.82 360.06L48.56 360.35L51.01 362.83L56.23 372.74L62.97 377.97L64.5 382.11L65.48 384.08L69.77 386.71L70.75 388.25L71.18 390.1L74.42 396.43L73.35 399.84L74.8 402.8L76.98 405.5L78.1 408.2L78.87 409.36L82.24 410.46L83.01 411.98L83.29 413.63L85.46 417.62L87.14 424.07L88.56 435.46L90.26 437.88L92.64 439.63L95.38 441.17L97.92 443.57L102.98 449.9L108.48 452.78L113.12 460.6L116.23 463.58L122.73 465.18L130.54 465.04L147.66 461.52L148.41 461.02L149.56 459.86L152.51 454.9L154.04 453.44L156.26 450.18L159.21 446.8L162.94 444.99L167.29 445.44L174.45 448.98L178.32 449.84L181.7 448.86L183.5 446.4L184.12 443.19L184 439.92L181 433.14L175.41 431.83L168.53 432.4L161.71 431.25L159.77 429.62L158.26 427.09L157.27 423.99L156.92 420.66L156.48 419.26L155.69 417.78L155.35 416.18L156.25 414.46L158.75 411.47L159.72 409.7L160.49 407.59L160.99 404.18L160.49 393.27L160.73 389.38L161.53 385.58L163.05 382.04L165.39 378.96L172.71 375.78L186.09 380.07L191.36 377.71L193.66 377.12L194.93 376.04L195.48 375.36L195.93 374.49L196.52 372.62L196.94 371.78L197.44 371.06L198.38 370.36L199.63 369.78L201.86 369.14L203.27 369.13L213.92 371.23L215.74 371.31L220.14 370.86L222.19 370.4L225.63 368.9L227.19 368.01L227.91 367.46L228.49 366.8L228.9 365.93L229.93 360.6L230.2 359.66L230.59 358.78L231.06 357.99L231.64 357.3L232.29 356.69L235.21 354.79L239.6 354.17L249.25 353.8L251.47 353.93L253.52 354.47L255.18 355.27L255.89 355.82L257.14 357.06L257.83 357.62L259.46 359.4L262.1 361.61L271.05 367.65L272.57 368.45L275.67 369.45L279.51 370.23L282.25 370.47H286.06L287.58 370.91L288.53 371.6L289.5 374.36L290.37 378.37L293 384.44L293.71 387.35L293.8 388.22V389.21L293.64 390.23L292.99 392.07L291.12 395.58L290.06 396.86L280.86 405.19L279.8 406.6L278.94 408.28L278.66 409.23L278.47 410.29L278.35 416.25L278.19 417.33L277.88 418.31L277.47 419.12L276.91 419.87L276.37 420.49L275.08 421.69L274.37 422.22L273.12 423.46L271.99 424.91L271.51 425.67L271.11 426.52L270.87 427.45L271.81 428.74L273.65 430.46L278.57 433.7L281.02 436.91L282.91 440.16L302.04 493.89L303.05 495.54L304.34 496.28L306.19 496.79L307.4 497.47L308.75 498.44L309.63 498.62L310.22 498.16L311.13 496.61L312.21 495.17L313.75 492.14L314.08 491.74L314.64 491.31L315.37 490.84L316.24 490.42L317.02 489.77L317.57 488.9L317.85 487.84L318.01 486.69L317.95 482.31L317.76 481.34L317.51 480.42L316.82 478.81L314.91 475.74L314.16 474.13L313.81 472.14V470.97L313.95 469.83L314.16 468.8L314.5 467.86L314.92 467.06L315.46 466.25L316.13 465.66L316.93 465.18L318.57 464.52L324.31 463.13L325.16 462.76L326.6 461.75L329.25 459.3L330.4 457.93L331.27 456.32L334.12 448.75L334.57 447.99L335.08 447.29L335.61 446.71L337.12 445.49L338.75 444.54L340.47 443.75L343.08 442.92L343.91 442.53L344.68 442.08L345.98 440.91L347.17 439.63L349.42 436.64L350.59 435.36L351.19 434.91L351.73 434.6L352.3 434.39L353.1 434.25L354.12 434.15L356.36 434.28L359.82 434.85L362.1 434.99L363.91 434.88L367.92 434.11L371.97 433.84L373.13 434.04L374.12 434.35L374.96 434.75L376.34 435.84L379.29 438.97L381.36 441.8L381.97 442.43L382.52 443.14L383.12 443.8L383.65 444.51L402.25 459.62L412.23 465.46L415.55 466.62L422.89 467.75L426.12 467.56L428.03 466.92L431.83 463.09L435.41 455.23L436.6 454.05L437.66 453.51L439.65 453.93H441.01L442.66 453.74L448.92 451.64L450.09 451.67L451.04 451.98L455.33 453.98L456.26 454.27L457.63 454.47L459.37 454.43L462.41 453.82L463.84 452.88L464.97 451.7L465.74 450.38L466.77 449.81L468.19 449.36L468.73 448.57L469.11 447.59L471.04 444.39L471.21 443.39L471.2 442.33L471.03 441.33L471.34 440.07L472.19 438.73L474.86 436.28L476.7 434.98L478.11 434.16L486.1 431.36L489.8 431.28L494.19 432.08L498.01 433.32L500.88 434.57L507.18 438.63L509.75 441.12L511.39 443.15L515.3 446.97L517.47 448.57L519.47 448.77L522.62 448.74L529.84 447.91L532.76 447.12L534.44 446.09L534.69 445.05L534.67 444.08L534.53 443.28L534.11 442.52L532.93 435.13L533.02 434.04L533.55 432.86L534.47 432.29L535.61 432.08L541.18 431.84L542.32 431.34L543.03 430.62L543.2 429.63L543.28 428.54L543.03 426.45L542.66 425.53L540.74 422.56L540.12 421.91L539.34 421.42L538.45 421.04L537.48 420.77L536.34 420.69L530.93 421.35L527 422.35L522.8 422.95L521.9 422.98L519.86 422.73L517.91 422.17L517.08 421.81L516.38 421.28L515.96 420.67L515.85 419.76L516.22 417.76V416.66L515.85 414.67L515.18 412.81L515.07 411.73L515.46 410.25L516.19 409.48L517.3 408.91L518.58 408.6L520.42 407.98L521.28 407.23L521.76 406.32L521.64 405.36L521.2 404.57L520.53 403.95L517.13 402.32L516.44 401.78L515.94 401.06L515.69 400.12V399.13L515.8 398.09L516.05 397.1L518 391.44L519.33 388.66L521.25 385.69L522.26 384.89L523.3 384.55L524.19 384.8L525.8 385.7L526.8 386.01H527.97L529.53 385.42L530.17 384.53L530.4 383.45L530.17 382.48L529.76 381.66L529.14 381.01L527.17 379.24L526.16 377.74L525.77 376.95L525.47 375.99L525.27 374.98L525.58 373.62L526.3 372.12L529.9 367.46L531.37 364.59L532.54 361.45L533.36 360.01L533.39 358.97L533.08 358.07L532.54 357.3L531.84 356.53L531.96 355.54L532.29 354.34L532.91 353.66L533.55 353.18L537.95 351.35L539.79 350.93L540.76 350.89L541.77 351.07L542.66 351.39L546.84 353.8L547.79 354.13L548.9 354.3H550.02L551.1 354.2L556.82 353.04L557.93 352.97L564.93 353.94H565H565.06L564.67 351.62L565.89 349.9L568.15 349.47L570.28 350.3L572.2 354.38L574.08 352.29L575.28 349.25L574.32 348.53L576.21 347.9L577.87 348.13L579.69 348.69L582.02 349.07L584 348.12L584.63 345.72L584.89 342.88L585.8 340.62L585.82 340.59L589.77 334.89L587.52 326L578.86 311.23V311.21H578.82L576.41 305.57L578.26 300L581.3 294.36L582.25 288.49L582.23 285.65L583.36 283.9L587.43 280.25L589.6 276.54L589.55 273.64L587.32 267.13L587.49 263.54L588.95 261.8L590.97 260.61L592.79 258.73L593.54 256.44L593.83 251.1L595.5 241.88L594.39 237.61L591.14 234.75L585.8 232.92L585.67 232.73L585.63 232.55L585.67 232.38L586.85 230.34L587.26 228.47L586.95 226.68L585.8 225.06L576.26 221.57L572.89 221.01L565.67 221.42L561.63 222.14L558.9 223.34L558.01 224.78L557.46 228.46L556.76 230.01L555.39 231.17L547.18 234.05L543.84 234.72L540.51 234.36L539.69 231.92L541.16 229.84L539.9 226.93L539.91 224.34L547.4 222.82L550.2 221.72L552.5 220.13L553.18 218.24L551.6 216.27L549.07 216.14L544.49 217L542.62 216.2L540.84 214.94L539.53 213.79L539.08 213.26L539.02 212.1L539.86 206.97L540.3 205.81L549.34 206.82L553.66 206.57L556.87 204.46L559.33 206.09L562.64 206.65L565.55 205.82L566.8 203.32L565.26 199.54L561.7 198.85L554.42 200.72L548.82 200.12L545.96 196.3L545.83 190.97L548.4 185.8L553.18 190.85L556.2 192.53L559.42 192.13L561.29 189.88L561.79 186.7L561.39 183.38L560.55 180.7L559.35 178.89L558.07 177.47L557.13 175.5L556.87 172.11L560.72 157.95L560.77 155.88L559.96 148.57L560.33 146.03L561.78 143.26L564.08 140.76L565.33 139.64L565.44 138.14L564.22 134.54L562.07 130.22L561.78 129L562.13 127.31L562.74 126.18L562.84 125.02L561.78 123.23L564.92 122.62L567.7 123.09L569.7 122.56L569.82 122L570.46 118.98L569.93 115.29L568.48 114.08L566.5 113.6L564.22 112.13L562.46 107.41L563.41 94.49L563.11 88.35L564.41 85.9L564.92 82.91L565.78 80.11L570.19 76.81L566.52 73.76L564.8 72.93L556.92 74.25L554.42 74.28L555.99 70.58L554.11 67.67L551.05 64.89L549.03 61.58L549.28 60.02L549.88 58.09L549.8 56.07L548.03 54.28L546.19 53.86L544.56 54.38L542.88 55.21L540.84 55.74L539.12 55.5L534.35 53.61L533.88 54.14L533.39 55.34L532.63 56.41L531.26 56.55Z" fill="#CCCCCC" stroke="white" stroke-width="0.5"/>
</svg>
