<svg width="286" height="549" viewBox="0 0 286 549" fill="none" xmlns="http://www.w3.org/2000/svg">
<path d="M121.9 4.29999L120.79 4.13L119.84 3.79999L115.66 1.39001L114.77 1.07001L113.76 0.890015L112.79 0.929993L110.95 1.35001L106.55 3.17999L105.91 3.66L105.29 4.34L104.96 5.54001L104.84 6.53L105.54 7.29999L106.08 8.07001L106.39 8.97L106.36 10.01L105.54 11.45L104.37 14.59L102.9 17.46L99.3 22.12L98.58 23.62L98.27 24.98L98.47 25.99L98.77 26.95L99.16 27.74L100.17 29.24L102.14 31.01L102.76 31.66L103.17 32.48L103.4 33.45L103.17 34.53L102.53 35.42L100.97 36.01H99.8L98.8 35.7L97.19 34.8L96.3 34.55L95.2599 34.89L94.25 35.69L92.33 38.66L91 41.44L89.05 47.1L88.8 48.09L88.69 49.13V50.12L88.94 51.06L89.44 51.78L90.1299 52.32L93.53 53.95L94.2 54.57L94.64 55.36L94.7599 56.32L94.28 57.23L93.42 57.98L91.58 58.6L90.3 58.91L89.19 59.48L88.46 60.25L88.0699 61.73L88.18 62.81L88.85 64.67L89.22 66.66V67.76L88.85 69.76L88.96 70.67L89.3799 71.28L90.08 71.81L90.91 72.17L92.86 72.73L94.9 72.98L95.8 72.95L100 72.35L103.93 71.35L109.34 70.69L110.48 70.77L111.45 71.04L112.34 71.42L113.12 71.91L113.74 72.56L115.66 75.53L116.03 76.45L116.28 78.54L116.2 79.63L116.03 80.62L115.32 81.34L114.18 81.84L108.61 82.08L107.47 82.29L106.55 82.86L106.02 84.04L105.93 85.13L107.11 92.52L107.53 93.28L107.67 94.08L107.69 95.05L107.44 96.09L105.76 97.12L102.84 97.91L95.62 98.74L92.47 98.77L90.47 98.57L88.3 96.97L84.39 93.15L82.75 91.12L80.18 88.63L73.8799 84.57L71.0099 83.32L67.19 82.08L62.8 81.28L59.1 81.36L51.11 84.16L49.7 84.98L47.86 86.28L45.19 88.73L44.34 90.07L44.03 91.33L44.2 92.33L44.21 93.39L44.04 94.39L42.11 97.59L41.73 98.57L41.19 99.36L39.77 99.81L38.74 100.38L37.97 101.7L36.84 102.88L35.41 103.82L32.37 104.43L30.6299 104.47L29.2599 104.27L28.33 103.98L24.04 101.98L23.09 101.67L21.92 101.64L15.66 103.74L14.0099 103.93H12.65L10.66 103.51L9.59998 104.05L8.40997 105.23L4.82996 113.09L1.02997 116.92L11.27 119.64L14.81 121.36L39.83 141.53L41.96 144.09L44.06 147.43L51.79 165.62L52.28 167.56L53.05 174.08L53.6299 175.91L54.0699 176.87L58.47 183.9L59.91 185.42L61.56 186.7L63.34 187.45L65.2599 187.91L69.29 188.52L70.62 188.99L72.74 190.33L73.74 191.69L74.41 193.54L74.66 195.84L78.96 207.75L90.8 228.15L92.92 233.39L93.17 234.4L93.73 245.17L94.06 246.68L94.84 248.85L95.56 250L96.35 250.82L102.98 254.16L107.89 255.54L109.11 256.16L110.53 257.04L112.79 258.97L113.82 260.2L114.49 261.33L115.3 266.72L115.27 269.11L114.54 274.62L111.51 284.21L111.29 286.33V287.38L112.12 293.06L112.9 302.75L112.46 305.96L111.98 306.72L110.62 309.83L109.48 313.43L109.14 315.47V317L109.45 317.91L110.2 322.1L110.62 327.23L110.45 330.09L110.12 331.98L109.67 332.92L108.14 335.08L105.62 337.54L104.93 338.07L101.75 341.06L100.89 342.52L99.92 344.64L98.25 349.36L97.74 351.7L97.6299 353.48L98.22 355.42L99.03 357.03L99.58 357.71L100.25 358.28L101.03 358.74L103.76 359.7L105.49 360.52L106.89 361.61L108.06 362.9L109.03 364.45L109.75 366.14L110.78 373.9L110.67 375.95L110.37 377.39L109.81 378.1L109.2 378.67L102.12 382.8L101.39 383.36L98.97 385.86L98.44 386.54L97.83 387.17L97.3 387.89L96.71 388.53L96.19 389.23L95.34 391.31L92.5 401.95L91.94 405.33L91.86 407.6L92.39 408.26L93.31 408.52L98.61 408.14L99.53 408.31L100.42 408.61L101.23 409.08L101.84 409.7L102.28 410.5L102.78 412.41L103.51 416.6L103.79 417.57L104.09 418.41L105.04 419.95L106.3 421.19L108.58 422.63L109.39 423.49L110.17 424.69L110.9 427.23L110.98 428.87L110.84 430.36L105.65 446.16L105.23 446.99L104.26 448.5L103.7 449.17L103.12 449.78L100.25 451.91L97.22 453.69L89.16 456.79L88.36 457.81L89.33 459.72L90.55 463.18L90.93 466.36L90.05 468.64L88.75 471.02L88.1299 474.24L88.3199 477.28L89.44 479.15L97.91 485.59L101.11 486.57L113.43 486.26L116.56 486.69L118.85 488.04L122.66 491.21L128.9 494.89L129.63 496.17L129.9 497.63L129.43 514.17L130.82 511.44L131.38 510.66L132.63 509.31L136 506.82L139.16 505.09L140.91 504.52L142.72 504.16L143.95 504.09L144.09 504.06L158.69 504.74L172.71 507.9L175.19 509.12L176.67 510.25L178.48 512.17L184.8 529.47L186.82 531.98L188.82 533.49L191.33 535.07L195.2 536.57L197.77 537.85L199.24 538.87L199.94 539.43L200.55 540.1L201.08 540.98L201.39 542.23L200.89 543.26L200.33 543.93L196.74 545L192.94 547.6L192.93 547.61L201.89 548.26L236.18 544.35L243.45 541.83L249.15 536.47L250.71 533.11L252.57 524.68L252.83 520.95L253.66 517.42L258.09 508.59L260.18 505.43L269.3 495.61L275.46 490.81L283.6 486.41L284.75 485.98L284.85 485.95H284.86L285.32 479.6L283.2 476.74L268.33 475.04L265.86 473.77L263.93 471.53L261.58 467.87L260.2 466.28L258.85 465.55L257.51 464.99L256.08 463.94L253.3 459.95L248.6 445.47L234.9 445.41L231.23 444.42L228.91 442.66L223.06 435.6L218.55 432.73L209.68 428.34L205.89 424.45L203.05 420.08L200.9 415.79L199.78 411.35L200.03 407.63L200.1 406.54L201.23 404.23L202.49 402.54L202.6 400.85L200.3 398.6L198.67 398.26L193.66 398.42L191.97 398.25L190.39 395.38L187.86 393.51L185.51 391.35L184.5 387.57L186.06 378.44L185.88 375.51L184.36 372.59L181.74 370.1L178.6 368.36L175.52 367.71L174.33 366.12L169.14 356.41L166.94 354.72L165.22 353.69L164.64 351.96L165.85 348.15L169.64 341.81L170.06 338.76L167.95 334.93L162.84 330.97L160.78 328.2L163.4 327.39L166.04 327.19L173.61 325.21L175.93 323.92L179.36 317.69L179.49 309.82L178.69 301.67L179.31 294.58L183.63 283.73L185.3 275.33L187.7 268.68L187.92 264.76L185.04 252.89L183.86 251.31L177.25 253.76L173.68 254.4L170.42 253.96L164.75 248.93L161.86 240.96L160.97 232.03L161.65 221.51L162.3 219.28L163.42 217.34L165.24 215.57L167.59 214.51L170.47 213.72L172.9 212.47L173.92 210.03L173.87 205.11L174.43 199.49L176.73 195.8L181.92 196.68L181.42 193.14L181.81 183.66L180.18 173.3L180.33 162.44L180.2 161.56L178.44 149.56L178.58 142.81L178.49 139.33L176.84 132.56L176.17 124.03L175.22 119.58L176.11 118.29L177.53 117.2L178.51 114.85L178.19 112.34L176.95 110.79L175.56 109.44L174.82 107.53L175.02 105.19L175.95 104.48L177.32 104.31L178.82 103.59L184.8 98.19L187.81 96.21L195.74 92.68L198.61 90.88L199.97 88.12L199.26 83.66L198.59 83.04L196.44 82.69L195.74 82.07L195.62 81.21L195.77 79.39L195.33 76.73L195.38 74.65L194.99 72.77L188.11 67.03L185.79 60.16L182.65 53.48L170.88 47.93L166.2 44.54L161.86 40.51L158.8 36.95L151.61 32.03L144.47 22L139.2 10.61L138.06 3.94H138H137.93L130.93 2.97L129.82 3.04001L124.1 4.20001L123.02 4.29999H121.9Z" fill="#CCCCCC" stroke="white" stroke-width="0.5"/>
</svg>
