<svg width="284" height="252" viewBox="0 0 284 252" fill="none" xmlns="http://www.w3.org/2000/svg">
<path d="M271.28 2.54001L269.04 1.66001L246.34 0.950012L243.22 1.94001L241.93 5.15001L239.83 6.34001L211.92 6.62001L172.62 7.01001L132.21 7.41001L88.77 7.84001L53.71 8.20001L36.86 8.37001L32.92 8.41001L32.85 6.47001L17.36 6.18001L17.61 7.24001L17.12 8.54001L18.19 12.04L20.16 15.28L21.24 18.78L20.23 22.97L17.81 25.65L14.95 27.85L12.53 30.65L11.21 34.46L9.22 42.94L6.2 47.89L5.55 52.06L4.57 53.8L2.65 55.71L2.1 56.8L2.53 58.65L2.71 59.47H3.07L3.84 59.62L4.67 60.02L5.19 60.83V62.01L4.79 62.82L4.29 63.52L3.19 66.51L0.779999 70.88L0.27 72.69L1.03 76.18L6.42 85.79L6.85 87.59L7.15 91.48L7.63 93.27L8.46 94.34L10.89 96.77L11.42 97.63L11.97 101.2L13.37 103.51L19.68 109.09L21.89 110.23L24.81 110.72L29.2 110.83L29.9 111.62L29.12 113.33L27.48 115.05L25.51 115.83L23.18 116.01L21.44 116.64L20.06 117.76L18.78 119.45L17.55 122.12L16.65 125.85V129.68L18.11 132.65L19.68 133.34L21.52 133.55L23.05 133.93L23.69 135.15L24.13 137.23L25.29 137.66L26.86 137.61L28.59 138.27L30.38 139.38L31.55 139.93L32.16 140.9L32.26 143.25L31.67 145.67L30.33 147.28L26.7 150.15L24.35 153.91L24.26 157.54L26.14 165.78V171.64V181.41L27.02 185.11L31.1 191.26L32.26 194.54L32.05 199.21L30.38 207.49L31.16 212.09L35.43 219.01L35.94 220.79L34.8 222.65L28.59 229.62L25.58 235.71L24.91 239.53L26.14 243.31L27.61 244.95L28.59 245.12L29.59 245.01L31.16 245.8L32.07 247.27L32.29 248.94L32.87 250.61L34.24 251.67L54.56 248.87L55.84 248.37L57.33 247.36L58.82 245.65L59.67 244.46L60.7 242.7L61.25 241.96L62.11 241.33L63.27 240.76L66.53 240L67.77 239.5L68.71 238.77L69.62 237.27L70.74 233.89L71.17 233.04L72.16 231.59L72.83 230.98L73.91 230.33L75.36 229.67L78.12 228.88L80.81 228.39L89.75 228.26L91.9 227.94L108.54 222.76L109.56 222.65L125.51 223.84L126.61 223.72L132.4 222.01L134.53 221.7L136.95 221.65L141.69 222.01L143.8 222.49L148.16 223.09L154.96 222.85L178.34 217.63L189.99 218.38L192.26 218.18L195.14 217.63H195.83L205.85 218.91L210.21 218.79L211.31 218.18L212.37 217.15L213.86 214.56L215.02 213.09L216.65 211.9L220.84 210.64L221.7 210.22L222.35 209.47L222.94 208.29L223.3 206.29L223.98 204.29L224.24 202.78L224.3 201.53L224.12 200.46L223.83 199.51L222.34 197.27L222.07 196.43L222.01 195.49L222.08 194.56L221.83 191.46L221.96 190.4L222.69 188.46V188.44L223.07 187.61L223.62 186.83L224.44 186.12L225.9 185.42L227.05 185.11L229.45 183.72L230.45 183.67L231.52 183.75L232.54 183.96L233.62 183.93L234.58 183.53L235.21 182.77L235.39 181.34L234.86 180.61L234 180.1L230.98 179.35L230.51 178.9L230.71 178.34L231.83 177.92L234.08 177.53L234.96 177.27L235.84 177.1L236.73 177.27L238.49 177.94L239.58 178.09L240.64 178.11L241.5 178.06L242.28 177.83L244.57 176.64L246.47 175.94L247.19 175.3L247.65 174.24L246.91 172.92L245.55 171.45L231.86 159.23L230.73 157.9L230.78 156.71L231.3 155.47L234.21 150.16L234.61 148.91L234.8 147.82L235.26 140.74L235.72 138.59L236.07 137.61L237.07 135.67L238.8 133.25L241.03 130.97L248.23 125.62L250.76 123.1L251.87 121.63L255.44 114.85L257.85 111.72L258.49 111.18L259.33 110.7L260.67 110.32L261.9 110.17L263.13 110.15L265.53 110.4L269.39 111.94L275.88 115.34L281.66 117.2L282.91 116.04L283.12 115.01L283.4 112.01L282.97 108.32L282.03 105.1L281.25 103.56L280.41 102.55L278.71 101.77L277.72 101.66L276.83 101.84L276.06 102.3L274.35 104.32L273.76 104.83L273.26 105.06H272.84L272.42 104.76L270.59 103.09L269.06 102.22L267.67 101.16L267.06 100.51L266.63 99.7L266.04 97.78L265.89 96.73L266.23 95.02L266.32 93.85L265.85 92.62L265.19 91.98L262.68 90.69L261.7 90.45L259.57 90.19L258.71 89.84L258.14 89.29L257.39 88.29L256.87 87.76L256.22 87.26L255.34 86.89L254.66 86.32L254.23 85.5L253.89 84.58L253.49 83.73L252.9 83.06L252.05 82.67L250.94 82.54L249.87 82.5L248.8 82.31L248.09 81.8L247.56 81.06L246.88 79.25L246.45 78.43L246.09 77.54L245.82 76.57L244.79 70.12L244.47 69.18L243.69 67.53L243.51 66.28L243.45 64.6L244.36 59.43L244.89 57.64L245.55 56.15L247.22 54.21L248.41 53.27L249.49 52.65L251.22 51.86L252.21 51.12L254.76 48.08L257.25 45.83L257.52 45.07L257.68 43.99L257.76 41.66L258.09 40.06L259.41 38.26L262.11 36.29L262.73 35.64L263.54 35.18L264.49 34.86L265.33 34.12L265.98 32.9L266.06 25.26L265.8 24.22L265.71 23.18L265.95 22.17L266.66 20.83L267.05 19.33L267.12 16.87L266.8 14.04L267.74 10.45L271.28 2.54001Z" fill="#CCCCCC" stroke="white" stroke-width="0.5"/>
</svg>
