<svg width="288" height="160" viewBox="0 0 288 160" fill="none" xmlns="http://www.w3.org/2000/svg">
<path d="M229.77 1L229.27 3.96L229.98 5.67L230.38 7.32L228.97 10.04L226.7 12.27L217.69 18.89L214.46 15.01L211.06 12.25H207.59L204.14 16.65L203.31 19.31L202.91 23.46L201.93 25.4L199.81 27.14L195.08 29.39L193.4 31.49V31.51L192.95 31.98L192.41 32.38L191.83 32.7L191.2 32.9L184.2 32.66L180.47 33.06L177.89 34.03L176.23 37.08L174.92 41.57L173.1 45.7L169.95 47.66L161.33 39.31L161.87 38.03L163.21 36.58L163.98 35.12L162.92 33.84L161.25 33.68L159.99 34.15L159.19 33.98L158.95 31.91L157.69 31.89L137.23 31.51V31.47L136.3 30.16L135.29 29.75L134.23 30.2L133.2 31.47L129.36 32.11L125.34 36.56L122.21 37L123.41 34.5L121.53 34.57L120.61 33.99L119.36 31.51L118 30.56L116.48 30.25L91.72 28.28L86.62 29.07L85.04 31.85L63.39 31.65L40.54 31.42L36.04 30.59L30.08 28.25L28.28 27.54L24.74 35.45L23.8 39.04L24.12 41.87L24.05 44.33L23.66 45.83L22.95 47.17L22.71 48.18L22.8 49.22L23.06 50.26L22.98 57.9L22.33 59.12L21.49 59.86L20.54 60.18L19.73 60.64L19.11 61.29L16.41 63.26L15.09 65.06L14.76 66.66L14.68 68.99L14.52 70.07L14.25 70.83L11.76 73.08L9.20999 76.12L8.22 76.86L6.48999 77.65L5.41 78.27L4.22 79.21L2.55002 81.15L1.89001 82.64L1.36002 84.43L0.450012 89.6L0.51001 91.28L0.690002 92.53L1.47 94.18L1.79001 95.12L2.82001 101.57L3.09 102.54L3.45001 103.43L3.88 104.25L4.56 106.06L5.09 106.8L5.80002 107.31L6.87 107.5L7.94 107.54L9.05002 107.67L9.89999 108.06L10.49 108.73L10.89 109.58L11.23 110.5L11.66 111.32L12.34 111.89L13.22 112.26L13.87 112.76L14.39 113.29L15.14 114.29L15.71 114.84L16.57 115.19L18.7 115.45L19.68 115.69L22.19 116.98L22.85 117.62L23.32 118.85L23.23 120.02L22.89 121.73L23.04 122.78L23.63 124.7L24.06 125.51L24.67 126.16L26.06 127.22L27.59 128.09L29.42 129.76L29.84 130.06H30.26L30.76 129.83L31.35 129.32L33.06 127.3L33.83 126.84L34.72 126.66L35.71 126.77L37.41 127.55L38.25 128.56L39.03 130.1L39.97 133.32L40.4 137.01L40.12 140.01L39.91 141.04L38.66 142.2L38.96 143.83L39.55 145.54L40.03 146.32L40.64 146.95L41.4 147.45L42.23 147.9L42.94 148.44L43.54 149.1L44.22 150.9L44.66 151.7L45.34 152.27L46.29 152.54L47.32 152.67L48.28 152.94L49.09 153.37L49.82 153.92L53.02 155.7L53.92 156.05L55.02 156.22L57.89 156.11L59.09 156.24L59.93 156.73L60.35 157.54L60.69 158.45L61.5 158.95L62.62 159L65.04 157.62L66.2 156.61L66.98 155.52L67.25 154.51L67.41 153.41L67.44 152.23L67.23 149.99L65.92 143.85L65.86 142.78L65.91 141.77L66.14 140.81L66.51 139.93L67.5 138.43L68.78 137.2L74.99 134.15L76.36 132.98L77.2 131.84L77.97 128.8L78.77 127.05L79.28 126.32L79.9 125.65L80.55 125.06L82.06 124.09L100.89 117.07L102.97 116.57L104.31 116.48L106.25 116.73L108.66 117.41L110.96 117.67L112 117.9L112.83 118.34L113.58 118.86L114.72 119.26L116.33 119.43L119.05 119.35L120.15 119.81L120.39 120.48L120 121.17L119.11 122.16L119.07 122.19L119.03 122.24L116.89 124.38L116.47 125.06L116.48 125.82L117.19 126.19L118.37 126.02L120.26 125.06L122.22 123.56L122.76 122.93L123.62 122.21L123.64 122.19L130.74 115.73L131.24 114.97L131.64 114.09L132.29 112.22L132.78 111.5L133.6 110.56L133.99 109.99L134.27 109.2L134.45 107.2L134.7 106.23L135.49 105.5L136.68 104.87L138.65 104.08L139.77 103.36L140.6 102.55L140.99 101.64L141.4 98.24L141.73 97.28L142.87 96.68L144.69 96.38L155.47 96.63L157.01 97.09L158.08 97.7L158.54 98.51L158.8 99.4L158.71 100.36L158.33 101.14L157.74 101.74L157.35 102.42L157.19 103.24L157.35 104.16L157.78 104.91L158.45 105.51L159.19 106.02L159.87 106.6L160.37 107.36L160.67 108.3L160.86 109.34L160.83 110.46L160.66 111.5L160.37 112.49L160 113.38L159.45 114.1L157.59 116.01L157.23 116.84L157.15 117.76L157.49 118.57L158.14 118.95L158.91 118.84L160.47 117.62L161.44 117.86L162.14 118.42L163.02 118.84L164.08 118.78L165.71 117.67L166.58 116.76L167.73 115.02L168.58 114.43L169.75 114.02L175.61 113.97L178.29 114.91L179.33 114.82L180.43 114.4L182.69 112.59L183.8 111.98L184.99 111.65L186.97 111.67L188.1 112.06L188.96 112.63L189.74 113.01L190.79 112.91L191.86 112.43L193.08 111.22L193.71 110.29L194.09 109.38L195.18 103.78L195.54 102.86L195.97 102.03L196.51 101.3L197.24 100.77L198.13 100.56L199.34 100.93L200.1 101.55L201.41 102.88L202.21 103.31L203.23 103.54L206.48 103.82L207.69 103.78L212.08 102.59L220.37 98.88L221.86 98.69L223.22 97.79L225.56 97.01L243.91 93.09L252.6 92.38L263.97 86.5L267.43 85.65L267.51 85.63L268.13 83.05L269.08 75.4L270.45 72.22L272.98 68.98L276.65 66.48L278.2 64.99L278.53 63.05L277.61 59.46L277.47 57.68L281.36 39.31L282.23 37.59L283.67 36.07L285.25 35.06L286.5 33.81L286.93 31.51L287.44 25.03L286.87 19.37L284.16 15.08L278.16 12.78L274.78 12.84L268.68 14.46L265.39 14.8L262.09 13.95L258.44 11.91L255.46 9.14L254.12 6.12L229.77 1Z" fill="#CCCCCC" stroke="white" stroke-width="0.5"/>
</svg>
