<svg width="332" height="420" viewBox="0 0 332 420" fill="none" xmlns="http://www.w3.org/2000/svg">
<path d="M211.49 418.92L216.29 418.73L218.71 417.75L231.09 416.17L233.63 415.14L236.33 412.56L240.67 406.37L243.54 403.83L257.31 397.65L269.64 394.13L271.32 393.99L272.9 393.68L272.99 392.83L272.67 391.63L273.07 390.31L278.25 384.58L280.44 382.91L292.74 376.82L293.48 376.15L294.61 374.86L295.02 373.43L293.77 370.72L294.05 369.26L296.27 367.49L299.33 366.73L302.49 366.96L305.07 368.15L305.2 368.07L305.19 368.03L303.65 356.33L303.72 354.41L304.43 350.01L305.02 347.99L305.8 346.15L309.32 339.6L310.44 338.25L311.12 337.7L311.86 337.18L312.64 336.76L313.44 336.44L315.23 335.92L316.15 335.78L318.63 335.82L319.62 335.72L320.57 335.51L321.36 335.21L322.11 334.77L322.84 334.27L323.48 333.66L325.69 330.92L331.06 326.74L331.63 326.12L331.71 325.13L331.16 323.76L329.31 321.63L328.13 320.51L320.87 315.87L315 310.55L312.7 307.87L312.08 306.83L311.51 305.48L310.26 301.49L309.62 300.16L308.84 299.13L307.33 297.67L306.22 296.92L305.1 296.34L303.29 295.63L301.82 294.54L301.18 293.9L298.3 290.42L297.14 287.26L296.6 285.14L296.52 284.09L296.6 283.01L296.97 280.92L297.53 279L297.95 278.18L298.52 277.53L299.31 277.12L300.14 276.87L300.91 276.42L301.44 275.76L302.34 274.3L302.56 273.56L302.47 272.75L302.27 271.89L300.56 269.27L298.28 266.82L295.88 264.73L292.65 262.9L290.94 262.15L289.02 261.53L286.82 261.16L282.5 261.08L281.45 260.88L280.52 260.55L279.67 260.11L277.6 258.43L276.78 257.98L275.85 257.6L274.74 257.44L273.65 257.39L271.58 257.62L269.74 258.12L263.76 260.5L262.8 260.63L261.8 260.56L260.93 259.62L260.2 258.04L259.58 254.41L259.52 252.51L259.69 250.88L260.83 247.98L261.81 244.11L262.04 242.13L261.9 238.52L262.02 237.45L262.33 236.5L262.78 235.73L263.34 235.03L264.58 233.77L265.08 233.1L265.15 232.16L264.76 231.08L263.44 230.05L261.14 229.01L260.43 228.26L260 227.14L259.84 225.2L260.07 222.44L260.8 219.19L260.91 218.12L260.51 216.51L259.59 214.64L257.15 211.26L255.8 209.74L254.66 208.75L253.75 208.39L249.55 207.37L248.63 206.96L247.81 206.5L244.58 203.99L243.98 203.4L243.48 202.83L235.34 191.04L231.95 187.51L231.22 187.02L230.53 186.46L227.8 185.03L222.15 182.66L221.38 182.24L220.75 181.75L220.09 180.93L218.15 176.09L217.56 174.99L215.76 173.06L214.26 172.07L210.58 170.82L209.61 170.61L208.17 170.12L205.24 168.74L199.96 165.2L199.27 164.48L197.91 162.22L197.41 160.79L197.13 159.63L196.9 157.3L197.01 155.03L197.34 152.87L197.61 151.92L198.47 150.85L199.87 149.72L202.92 148.07L207.81 146.1L210.02 144.53L212.95 141.82L214.23 140.03L215.14 137.34L210.97 137.52L209.59 137.32L208.48 136.83L207.37 135.57L206.82 134.51L206.42 133.48L205.63 130.58L205.27 129.7L203.85 127.46L203.21 126.85L202.47 126.33L201.6 125.94L188.43 122.88L186.81 122.08L186.35 121.27L186.13 120.34L186.08 119.24L186.33 117.01L189.76 106.81V105.83L189.67 104.89L189.54 104.29L189.31 103.57L188.8 102.93L187.94 102.38L186.52 102.15L185.1 102.37L181.25 103.69H179.88L178.76 103.43L173.23 100.02L171.49 99.2401L170.58 98.97L169.52 98.92L168.53 99.3901L167.57 100.26L166.6 102.34L166.14 103.78L164.32 116.4L163.82 118.38L163.15 120.26L162.29 122.07L161.72 122.95L159.4 125.2L158.72 125.67L157.1 126.46L156.15 126.74L155.02 126.85L153.74 126.84L152.14 126.65L151.16 126.01L150.73 125.56L151.28 121.24L149.88 121.19L148.26 120.37L145.91 118.66L143.91 117.54L143 117.25L141.94 117.05L137 116.8L136 116.61L134.99 116.19L134.15 115.41L126.18 98.4301L125.43 97.5901L124.34 96.8L122.25 95.8701L118.66 94.8201L117.78 94.4601L116.91 93.91L116.06 93.0801L115.11 91.79L114.37 89.8801L113.6 86.2501L112.9 85.2601L111.76 84.3201L109.4 83.17L107.73 82.7501L106.22 82.5601L99.43 83.1201L97.11 83.1L95.13 82.5901L94.31 82.17L87.29 76.7801L85.61 75.97L80.75 74.66L79.87 74.2001L79.15 73.6401L78.59 72.73L78.68 71.4601L78.5 69.9501L78.06 68.2001L76.85 65.3101L76.4 63.48L76.21 61.9401L76.34 60.8401L76.6 59.86L78.06 56.41L78.25 55.4601L78.21 54.4501L77.65 52.55L77.29 51.7001L77.02 50.7501L76.85 49.7601L76.77 46.55L76.47 45.3901L73.69 39.2101L72.8 35.3901L68.53 27.47L66.52 25.1801L63.87 22.8401L58.42 19.8201L55.72 18.7101L53.75 18.2601L51.81 18.66L45.01 21.4501L44.08 21.6801L43.07 21.72L40.83 21.5001L39.7 21.0601L38.63 20.4501L37.26 19.3701L36.45 18.5301L35.82 17.73L33.93 14.3301L32.71 10.6501L30.85 1.17004L30.68 0.560059L28.47 1.94006L7.75 37.5801L4.74 44.55L4.49 51.0901L5.27 52.92L7.52 55.8201L9.94 60.5101L10.36 61.7101L6.83 71.6401L5.86 72.8201L2.55 74.6501L1.25 76.55L1 79.5901L15.18 143.43L17.31 146.02L17.83 146.66L23.12 151.5L26.94 161.58L32.39 191.7L35 198.16L41.91 210.84L44.1 217.38L44.56 223.9L42.81 244.5L54.47 243.5L52.66 254.78L53.63 259.45L57.87 261.82L61.39 261.38L67.23 257.84L70.15 256.67L82.95 259.98L85.25 261.85L86.66 264.21L87.34 267.13L87.76 276.58L90.95 289.49L95.85 301L96.62 304.24L96.16 307.39L94.38 309.66L92 310.1L85.94 308.99L84.77 320.15L85.28 322.65L87.78 326.26L88.58 328.34L88.49 329.88L87.73 333.65L87.87 335.3L88.44 335.92L90.81 337.95L91.79 339.11L90.07 342.5L87.5 344.33L83.38 344.93L76.23 344.65H76.22L72.34 346.42L65.89 347.45L60.9 349.54L61.38 354.49L59.42 355.08L55.74 356.63L53.37 356.96L52.41 356.28L50.21 353.1L49.14 352.04L45.26 350.9L32.41 350.81L30.37 351.12L28.7 351.78L27.45 352.1L26.67 355.07L29.52 355.72L54.44 363.37L80.32 367.92L103.75 369.7L133.32 379.76L163.71 386.03L182.36 393.33L183.35 394.43L184.14 395.81L184.45 397.13L185.18 398.73L186.91 399.77L190.7 401.38L198.35 407.5L200.03 409.27L199.84 410.1L201.86 410.3L204.58 411.13L206.03 411.34L208.36 411.99L208.78 413.62L208.59 415.64L209.1 417.49L210.4 418.68L211.49 418.92Z" fill="#CCCCCC" stroke="white" stroke-width="0.5"/>
</svg>
